<?xml version="1.0" encoding="UTF-8"?>
<svg id="Layer_1" xmlns="http://www.w3.org/2000/svg" version="1.1" viewBox="0 0 800 800">
  <!-- Generator: Adobe Illustrator 29.1.0, SVG Export Plug-In . SVG Version: 2.1.0 Build 142)  -->
  <defs>
    <style>
      .st0 {
        fill: #161614;
      }
    </style>
  </defs>
  <path class="st0" d="M400,71.9c-185.8,0-336.4,150.6-336.4,336.4s96.4,274.7,230,319.2c16.8,3.1,23-7.3,23-16.2s-.3-34.5-.5-62.6c-93.6,20.3-113.3-39.7-113.3-39.7-15.3-38.9-37.3-49.2-37.3-49.2-30.5-20.9,2.3-20.5,2.3-20.5,33.8,2.4,51.6,34.7,51.6,34.7,30,51.4,78.7,36.6,97.9,28,3-21.7,11.7-36.6,21.4-45-74.7-8.5-153.3-37.4-153.3-166.2s13.1-66.7,34.7-90.3c-3.5-8.5-15-42.7,3.3-89,0,0,28.2-9,92.5,34.5,26.8-7.5,55.6-11.2,84.2-11.3,28.6.1,57.4,3.9,84.3,11.3,64.2-43.5,92.4-34.5,92.4-34.5,18.3,46.3,6.8,80.5,3.3,89,21.6,23.6,34.6,53.6,34.6,90.3,0,129.2-78.7,157.7-153.6,166,12.1,10.4,22.8,30.9,22.8,62.3,0,45-.4,81.2-.4,92.3s6.1,19.4,23.1,16.1c133.6-44.5,229.8-170.6,229.8-319.2S585.8,71.9,400,71.9"/>
  <path class="st0" d="M189.6,551.1c-.7,1.7-3.4,2.2-5.8,1-2.4-1.1-3.8-3.4-3-5.1.7-1.7,3.4-2.2,5.8-1,2.4,1.1,3.8,3.4,3,5.1M206.1,565.9c-1.6,1.5-4.7.8-6.9-1.6-2.2-2.3-2.6-5.5-1-7,1.7-1.5,4.7-.8,6.9,1.6,2.2,2.4,2.6,5.5.9,7M217.5,584.8c-2.1,1.4-5.4,0-7.5-2.9-2.1-3-2.1-6.6,0-8,2.1-1.4,5.4-.1,7.5,2.8,2.1,3,2.1,6.6,0,8.1M236.7,606.6c-1.8,2-5.8,1.5-8.6-1.3-2.9-2.7-3.8-6.6-1.9-8.6,1.9-2,5.8-1.5,8.7,1.3,2.9,2.7,3.8,6.6,1.8,8.6M261.5,614c-.8,2.6-4.6,3.8-8.4,2.7-3.8-1.2-6.3-4.2-5.5-6.9.8-2.7,4.6-3.9,8.4-2.7,3.8,1.1,6.3,4.2,5.5,6.9M289.7,617.2c0,2.8-3.1,5.1-7.1,5.1-4,0-7.3-2.2-7.3-4.9,0-2.8,3.2-5.1,7.2-5.1,4,0,7.3,2.2,7.3,4.9M317.5,616.1c.5,2.7-2.3,5.5-6.3,6.2-3.9.7-7.5-1-8-3.6-.5-2.8,2.3-5.6,6.2-6.3,4-.7,7.5.9,8,3.7"/>
</svg>