<?xml version="1.0" encoding="UTF-8"?>
<svg id="Layer_1" data-name="Layer 1" xmlns="http://www.w3.org/2000/svg" viewBox="0 0 1037.26 1036.33">
  <defs>
    <style>
      .cls-1 {
        fill: #585858;
      }

      .cls-2 {
        fill: #e7f3ea;
      }

      .cls-3 {
        fill: #d0e5d2;
      }

      .cls-4 {
        fill: #a5c59b;
      }

      .cls-5 {
        fill: #dfeadb;
      }

      .cls-6 {
        fill: #0b6d00;
      }

      .cls-7 {
        fill: #c7dbbf;
      }

      .cls-8 {
        fill: #539343;
      }

      .cls-9 {
        fill: #a3a3a3;
      }

      .cls-10 {
        fill: #ffbf00;
      }

      .cls-11 {
        fill: #18ea00;
      }

      .cls-12 {
        fill: #e5f0e5;
      }

      .cls-13 {
        fill: #a6cda9;
      }
    </style>
  </defs>
  <g>
    <path class="cls-1" d="M551.52,1.01c260.58,6.31,473.85,238.12,484.73,492.83.11,2.69-.08,5.41,0,8.1.11,3.76-.23,7.55.29,11.28.46,3.31.32,6.66-.05,9.98-.45,4-.11,8.1-.24,12.14-.07,2.35.1,4.73,0,7.08-11.48,272.51-230.5,482.46-500.92,493.84-5.36.23-10.81-.14-16.17.02l-.02-.02v-147.75c120.79-1.22,227.3-55.35,255.33-179.3,4.61-20.36,18.2-64.35-10.89-71.72-37.21-9.43-35.3,52.64-42.14,77.39-25.79,93.45-112.74,121.87-202.31,122.02V0M765.28,282.03c0-32.77-26.57-59.34-59.34-59.34s-59.34,26.57-59.34,59.34,26.57,59.34,59.34,59.34,59.34-26.57,59.34-59.34Z"/>
    <path class="cls-9" d="M1037.26,527.23h-1.01c.09-6.04.1-12.17,0-18.22h1.01v18.22Z"/>
    <g>
      <circle class="cls-10" cx="705.94" cy="282.03" r="59.34"/>
      <g>
        <path class="cls-10" d="M519.14,888.51v-51.61c89.57-.15,176.52-28.57,202.31-122.02,6.83-24.75,4.93-86.82,42.14-77.39,29.09,7.37,15.49,51.36,10.89,71.72-28.04,123.95-134.54,178.08-255.33,179.3Z"/>
        <path class="cls-11" d="M519.14,836.9v51.61c-92.03.93-217.98-34.01-262.27-122.78-11.19-22.43-48.6-120.77,5.64-112.91,25.04,3.63,25.96,52.19,32.49,72.75,27.99,88.23,141.91,111.47,224.14,111.33Z"/>
      </g>
    </g>
  </g>
  <g>
    <path class="cls-6" d="M519.14,0v836.9c-82.23.14-196.15-23.1-224.14-111.33-6.53-20.57-7.45-69.12-32.49-72.75-54.23-7.86-16.83,90.47-5.64,112.91,44.29,88.77,170.23,123.71,262.27,122.78v147.75c-1.01.02-2.02-.01-3.04,0s-2.02,0-3.04,0c-1.35,0-2.7,0-4.05,0-.34,0-.67,0-1.01,0-5.19-2.03-11.66-.81-17.2-1.01C228.77,1025.71,12.38,802.75,2.02,542.41c-.11-2.69.05-5.41,0-8.1-.07-3.73,1.38-10.21-2.02-12.14v-6.07c3.15-1.41,1.95-5.46,2.02-8.1s-.08-5.41,0-8.1c.04-1.35-.05-2.7,0-4.05C11.6,227.35,238.13,18.19,503.35.75M373.77,283.21c0-32.77-26.57-59.34-59.34-59.34s-59.34,26.57-59.34,59.34,26.57,59.34,59.34,59.34,59.34-26.57,59.34-59.34Z"/>
    <path class="cls-13" d="M2.02,534.32h-1.01c-.02-.67.01-1.35,0-2.02s.04-1.36,0-2.02c-.08-1.14.28-2.43-1.01-3.04v-5.06c3.4,1.94,1.96,8.41,2.02,12.14Z"/>
    <path class="cls-7" d="M2.02,508.01c-.97.37-.84,1.23-1.01,2.02H0v-4.05c.93-.37.94-1.2,1.01-2.02.12-1.33-.06-2.71,0-4.05h1.01c-.08,2.69.08,5.41,0,8.1Z"/>
    <path class="cls-8" d="M0,516.1v-3.04c1.39-.64.79-1.98,1.01-3.04.17-.8.04-1.66,1.01-2.02-.08,2.63,1.12,6.68-2.02,8.1Z"/>
    <path class="cls-4" d="M0,513.07v-3.04h1.01c-.22,1.05.38,2.39-1.01,3.04Z"/>
    <path class="cls-3" d="M1.01,530.27H0v-3.04c1.29.61.94,1.9,1.01,3.04Z"/>
    <path class="cls-5" d="M0,505.98v-2.02h1.01c-.08.83-.09,1.65-1.01,2.02Z"/>
    <path class="cls-2" d="M1.01,532.29H0v-2.02h1.01c.04.67-.01,1.35,0,2.02Z"/>
    <circle class="cls-11" cx="314.43" cy="283.21" r="59.34"/>
    <path class="cls-12" d="M2.02,542.41c-1.85-1.96-.95-5.58-1.01-8.1h1.01c.05,2.69-.11,5.41,0,8.1Z"/>
    <path class="cls-5" d="M2.02,499.91h-1.01c.06-1.38-.5-3.21,1.01-4.05-.05,1.35.04,2.7,0,4.05Z"/>
  </g>
</svg>