<svg width="512" height="512" viewBox="27 37 145 145"
     xmlns="http://www.w3.org/2000/svg"
     role="img">
  <defs>
    <linearGradient id="line-grad" x1="0" y1="0" x2="1" y2="1">
      <stop offset="0%" stop-color="hsl(22,99%,52%)"/>
      <stop offset="100%" stop-color="hsl(220,90%,55%)"/>
    </linearGradient>

    <radialGradient id="g-orange" cx="50%" cy="40%" r="60%">
      <stop offset="0%" stop-color="hsl(22,99%,62%)"/>
      <stop offset="100%" stop-color="hsl(22,99%,48%)"/>
    </radialGradient>
    <radialGradient id="g-bluepurple" cx="50%" cy="40%" r="60%">
      <stop offset="0%" stop-color="hsl(260,70%,68%)"/>
      <stop offset="100%" stop-color="hsl(205,85%,45%)"/>
    </radialGradient>
    <radialGradient id="g-teal" cx="50%" cy="40%" r="60%">
      <stop offset="0%" stop-color="hsl(185,80%,64%)"/>
      <stop offset="100%" stop-color="hsl(195,70%,42%)"/>
    </radialGradient>
    <radialGradient id="g-magenta" cx="50%" cy="40%" r="60%">
      <stop offset="0%" stop-color="hsl(320,75%,68%)"/>
      <stop offset="100%" stop-color="hsl(320,65%,46%)"/>
    </radialGradient>
    <radialGradient id="g-yellow" cx="50%" cy="40%" r="60%">
      <stop offset="0%" stop-color="hsl(48,95%,70%)"/>
      <stop offset="100%" stop-color="hsl(42,90%,48%)"/>
    </radialGradient>
    <radialGradient id="g-purple" cx="50%" cy="40%" r="60%">
      <stop offset="0%" stop-color="hsl(280,75%,70%)"/>
      <stop offset="100%" stop-color="hsl(270,65%,45%)"/>
    </radialGradient>

    <filter id="soft" x="-50%" y="-50%" width="200%" height="200%">
      <feGaussianBlur stdDeviation="2.5" result="blur"/>
      <feMerge>
        <feMergeNode in="blur"/>
        <feMergeNode in="SourceGraphic"/>
      </feMerge>
    </filter>
  </defs>

  <g stroke="url(#line-grad)" stroke-width="3" stroke-linecap="round" stroke-linejoin="round" fill="none" opacity="0.9">
    <line x1="100" y1="100" x2="60" y2="60"/>
    <line x1="100" y1="100" x2="140" y2="60"/>
    <line x1="100" y1="100" x2="40" y2="100"/>
    <line x1="100" y1="100" x2="160" y2="120"/>
    <line x1="100" y1="100" x2="120" y2="160"/>
    <line x1="100" y1="100" x2="80" y2="150"/>
    <line x1="40" y1="100" x2="100" y2="99"/>

    <line x1="60" y1="60" x2="140" y2="60"/>
    <line x1="140" y1="60" x2="160" y2="120"/>
    <line x1="160" y1="120" x2="120" y2="160"/>
    <line x1="120" y1="160" x2="80" y2="150"/>
    <line x1="80" y1="150" x2="40" y2="100"/>
    <line x1="40" y1="100" x2="60" y2="60"/>
  </g>

  <g filter="url(#soft)">
    <circle cx="100" cy="100" r="11" fill="url(#g-orange)"/>
    <circle cx="100" cy="100" r="3" fill="#fff" fill-opacity="0.95"/>

    <circle cx="60" cy="60" r="7.5" fill="url(#g-bluepurple)"/>
    <circle cx="60" cy="60" r="2.2" fill="#fff" fill-opacity="0.9"/>

    <circle cx="140" cy="60" r="6.8" fill="url(#g-magenta)"/>
    <circle cx="140" cy="60" r="2" fill="#fff" fill-opacity="0.9"/>

    <circle cx="40" cy="100" r="6.5" fill="url(#g-yellow)"/>
    <circle cx="40" cy="100" r="1.9" fill="#fff" fill-opacity="0.9"/>

    <circle cx="160" cy="120" r="6.8" fill="url(#g-teal)"/>
    <circle cx="160" cy="120" r="2" fill="#fff" fill-opacity="0.9"/>

    <circle cx="120" cy="160" r="7" fill="url(#g-purple)"/>
    <circle cx="120" cy="160" r="2.1" fill="#fff" fill-opacity="0.9"/>

    <circle cx="80" cy="150" r="6.5" fill="url(#g-bluepurple)"/>
    <circle cx="80" cy="150" r="1.9" fill="#fff" fill-opacity="0.9"/>
  </g>
</svg>
